inDegrees=no
num_controls=7
num_derivatives=13
num_iterations=223
num_multipliers=7
num_parameters=0
num_slacks=7
num_states=26
objective=6.517028
objective_accelerations=0.713577
objective_balance=0.038997
objective_effort=0.559622
objective_height=5.133270
objective_ligament=0.071561
solver_duration=1941.482738
status=Solve_Succeeded
success=true
DataType=double
version=3
OpenSimVersion=4.4-2022-07-23-0e9fedc
endheader
time	/jointset/ground_pelvis/pelvis_tilt/value	/jointset/ground_pelvis/pelvis_tx/value	/jointset/ground_pelvis/pelvis_ty/value	/jointset/hip_r/hip_flexion_r/value	/jointset/hip_r/hip_adduction_r/value	/jointset/hip_r/hip_rotation_r/value	/jointset/back/lumbar_extension/value	/jointset/patellofemoral_r/patellar_flexion_r/value	/jointset/knee_r/knee_flexion_r/value	/jointset/knee_r/knee_adduction_r/value	/jointset/knee_r/knee_rotation_r/value	/jointset/ankle_r/ankle_angle_r/value	/jointset/subtalar_r/subtalar_angle_r/value	/jointset/ground_pelvis/pelvis_tilt/speed	/jointset/ground_pelvis/pelvis_tx/speed	/jointset/ground_pelvis/pelvis_ty/speed	/jointset/hip_r/hip_flexion_r/speed	/jointset/hip_r/hip_adduction_r/speed	/jointset/hip_r/hip_rotation_r/speed	/jointset/back/lumbar_extension/speed	/jointset/patellofemoral_r/patellar_flexion_r/speed	/jointset/knee_r/knee_flexion_r/speed	/jointset/knee_r/knee_adduction_r/speed	/jointset/knee_r/knee_rotation_r/speed	/jointset/ankle_r/ankle_angle_r/speed	/jointset/subtalar_r/subtalar_angle_r/speed	/forceset/tau_hip_flexion_r	/forceset/tau_hip_adduction_r	/forceset/tau_hip_rotation_r	/forceset/tau_knee_flexion_r	/forceset/tau_ankle_angle_r	/forceset/tau_subtalar_angle_r	/forceset/tau_lumbar_extension	lambda_cid13_p0	lambda_cid14_p0	lambda_cid14_p1	lambda_cid14_p2	lambda_cid14_p3	lambda_cid14_p4	lambda_cid14_p5	/jointset/ground_pelvis/pelvis_tilt/accel	/jointset/ground_pelvis/pelvis_tx/accel	/jointset/ground_pelvis/pelvis_ty/accel	/jointset/hip_r/hip_flexion_r/accel	/jointset/hip_r/hip_adduction_r/accel	/jointset/hip_r/hip_rotation_r/accel	/jointset/back/lumbar_extension/accel	/jointset/patellofemoral_r/patellar_flexion_r/accel	/jointset/knee_r/knee_flexion_r/accel	/jointset/knee_r/knee_adduction_r/accel	/jointset/knee_r/knee_rotation_r/accel	/jointset/ankle_r/ankle_angle_r/accel	/jointset/subtalar_r/subtalar_angle_r/accel	gamma_cid13_p0	gamma_cid14_p0	gamma_cid14_p1	gamma_cid14_p2	gamma_cid14_p3	gamma_cid14_p4	gamma_cid14_p5
0.5	-0.1845253015607842	0.01177626266304835	0.8127847111293022	0.9520671791517683	-0.2465306359927141	-0.07281209871076916	-0.3371364832024494	0.8696364524081124	0.8696364524081155	0.0654897872594028	0.1745321587911251	0.2736944949425501	0.03626205087932909	-0.4784370380223815	-0.1627451587508179	-0.5351288614676052	2.107586097363916	-0.01872981964372861	0.4484009173411468	-0.591904613436993	2.147195794977388	2.147195794977399	-0.1794405881587305	-5.426272822919367e-05	0.6156315637438631	0.1321601326501265	-0.1316934298838997	-0.02490830913300596	0.01650045395977908	-0.3686789821751997	0.09372369194061608	-0.008095536843278895	0.1734037815830096	-20.94978326965213	-11.30547560895774	-1.881230486883568	-3.368361375813866	-1.954073222593097	-658.4073733875318	62.12240741132558	0.3699071919580919	0.5509930059187942	-0.5290587519374386	-1.27242706414621	0.161156476549796	-0.3558666913124883	1.697834075973643	-1.486089299037041	-1.486089299037034	0.5030088782114913	-0.0374498531518719	-0.6782769702776583	0.1257583806826881	-1.837599002934235e-07	-1.364948993926602e-07	1.693180942420396e-06	-8.90338649761755e-07	-1.037667916680051e-07	-2.53843926525254e-07	1.071689664297342e-06
0.51	-0.1892901749302766	0.01017656044253093	0.8074082390726488	0.9730759727775761	-0.2467107037874636	-0.06834675668965633	-0.3429702577085234	0.8910308811637605	0.8910308811637676	0.06372173273576869	0.1745313348752799	0.2798156639233457	0.03758856256147708	-0.4744701116797171	-0.1571787265840104	-0.5400407276543286	2.09388690063477	-0.0172837417549287	0.4446360742639999	-0.5747789763061605	2.131390687649843	2.131390687649847	-0.1741775963104147	-0.0001072690948630898	0.6085142405947056	0.1331235970839481	-0.1387316250692313	-0.02350269209134788	0.0169358303659326	-0.3729475178764129	0.09067506343261919	-0.007066588462985321	0.1796835397540477	-19.55205403271727	-12.53639325814093	-1.758714343698707	-3.263582038982324	-1.492496536477004	-663.7945741110939	62.42775214399091	0.4202001760739469	0.5619327820783158	-0.4535775271916944	-1.461542549229327	0.1363198983245678	-0.3917558020048371	1.7306252524111	-1.672575916515449	-1.672575916516276	0.5370677933631902	0.01111692751588818	-0.7416989345908048	0.07900321767840035	-1.735751118733324e-07	-1.329330876431314e-07	1.575299565442153e-06	-8.611837121029504e-07	-9.312017336484567e-08	-2.431450925613912e-07	9.971538873476224e-07
0.52	-0.1940133560722123	0.008633015435684876	0.8019863829590976	0.9939391991217058	-0.2468763135126691	-0.06392005563653248	-0.3486306364991347	0.9122582879527515	0.9122582879527645	0.06200613282166031	0.1745300494869599	0.2858630118831785	0.03892418143655259	-0.4700985925109174	-0.1515137160165428	-0.5442056728471228	2.078472641028405	-0.01583820573495073	0.4406727237432904	-0.5572254703444051	2.113791401646214	2.113791401646213	-0.1689496662532364	-0.0001465572240955311	0.6008673595513073	0.1339815712356298	-0.1457698202545614	-0.02209707504968705	0.01737120677210787	-0.3772160535776264	0.0876264349246231	-0.006037640082688192	0.1859632979250862	-18.16071839892611	-13.77026131377578	-1.631548860273535	-3.165444981229089	-1.045831052296181	-669.2385516739363	62.80162336469279	0.450825757185152	0.5707086860507905	-0.3796745531515727	-1.615439639589971	0.1610481027854089	-0.3955681800250306	1.783407842158256	-1.844925034253605	-1.844925034253608	0.4959965199840038	-0.03470620567157353	-0.7841885491258439	0.1046603242546968	-1.625294924129229e-07	-1.260212205243078e-07	1.457704980850132e-06	-8.183606425432357e-07	-8.573338346478645e-08	-2.261994981117463e-07	9.200418539204152e-07
0.53	-0.1986908656648851	0.007146538969289616	0.7965266517623035	1.014639896190728	-0.2470274019395818	-0.05953384140520703	-0.3541134955569442	0.9333009048173779	0.9333009048173847	0.06034250793590386	0.1745282615813631	0.2918313465253274	0.04026794240530297	-0.4653393291805539	-0.1457718031730745	-0.5476113938400043	2.061390858179995	-0.0143802675237682	0.4365391229716564	-0.5392923303305781	2.094445483083345	2.094445483083347	-0.1637851034890375	-0.0002091738061064259	0.5927184503760529	0.1347515648969635	-0.1526851688805897	-0.02080829628037086	0.01778856276828758	-0.3816071697669505	0.08462553632514382	-0.005120637208969059	0.1921090996464118	-16.77925356545507	-15.0012493839016	-1.559184682231154	-3.050931927130516	-0.5433932774949073	-674.7643181519832	63.11325924790502	0.4980633661722222	0.5773823261944148	-0.3016884313624055	-1.795950820892591	0.1380253822817262	-0.4271273284934064	1.806368714056175	-2.022367151109988	-2.022367151109543	0.5254031828856311	0.008109024378227383	-0.84244483309056	0.06043671619034521	-1.516154875296643e-07	-1.18396615117534e-07	1.341432212010029e-06	-7.73947375057097e-07	-7.924494910352227e-08	-2.081969737778638e-07	8.427212132658133e-07
0.54	-0.2033188652752128	0.005717771579868939	0.7910367298437794	1.03516149478858	-0.2471639392439827	-0.05518993744215138	-0.3594154028880032	0.9541414741196149	0.9541414741196147	0.05873027208343835	0.1745258771917134	0.2977157515294507	0.04161885687649021	-0.4601965960417775	-0.1399719006216257	-0.5502438171931225	2.042652946794539	-0.01292798123270201	0.4322106700895887	-0.5210351249942997	2.073381889168218	2.073381889168223	-0.1586718595949265	-0.0002658540343540107	0.5840814319461856	0.1354122717230022	-0.1596005175066194	-0.01951951751105995	0.01820591876447508	-0.3859982859562752	0.08162463772566277	-0.004203634335257782	0.198254901367737	-15.41050978149854	-16.23495834837002	-1.482859755686781	-2.942118878774397	-0.05703733229203791	-680.3431738859714	63.48749210370264	0.5275197188677266	0.5823066276468661	-0.2250150251989232	-1.946665346999393	0.1599177187621445	-0.4345386021117706	1.848220906648558	-2.188460104705088	-2.188460104705086	0.4857327459663958	-0.0335189349189034	-0.8818104000484022	0.08280295719568183	-1.408470987743172e-07	-1.099834482006874e-07	1.226621877618857e-06	-7.277747396523615e-07	-7.375044001922281e-08	-1.890250802103569e-07	7.651697731255833e-07
0.55	-0.2078936414338579	0.004347235508941969	0.7855243708003388	1.055487657620907	-0.2472859229615271	-0.05089025391958038	-0.3645332340855555	0.974763000465501	0.9747630004655009	0.05716874750835929	0.1745228516342068	0.303511467126436	0.04297591680921341	-0.4547011352959262	-0.1341305919121631	-0.5520957984373096	2.022313828856904	-0.01147221567473443	0.4276866191562029	-0.502493742768238	2.050649452568616	2.050649452568617	-0.1536479093272051	-0.0003309211677148588	0.5749889981826721	0.1359779966841957	-0.1662689242555673	-0.01845963419114141	0.01860695346689256	-0.3906360757870716	0.07890440726068629	-0.003365184918765645	0.2041706012956729	-14.05676320299071	-17.38473970064357	-1.428088638551947	-2.827432734704578	0.4101738536325944	-685.9362861132804	63.87075818555211	0.5691726418710241	0.5857370896294398	-0.1454964289126057	-2.117417965599544	0.1378584892877345	-0.4674417050360688	1.862702642796093	-2.356697559000363	-2.35669755900108	0.5086552103126885	0.008136591907186604	-0.9338926210213198	0.04030037178476054	-1.254120935107665e-07	-9.273581564901088e-08	1.146758835061509e-06	-6.193913944766462e-07	-7.797071483034006e-08	-1.651234206962569e-07	7.138698429590315e-07
0.5600000000000001	-0.2124117403071594	0.003035251344516317	0.7799974505934794	1.075602452684167	-0.247393458520496	-0.04663703157956357	-0.3694645303084051	0.9951489900211116	0.9951489900211069	0.05565704824458655	0.174519402844249	0.3092140718344823	0.04433800261278927	-0.4488611389729851	-0.1282615193213617	-0.5531560498768602	2.000379392981113	-0.01003834951781542	0.4229184335794531	-0.483728130053731	2.026274531112508	2.026274531112504	-0.1487067973339758	-0.0003505005230004253	0.5654592541584172	0.1364174458935317	-0.1729373310045199	-0.0173997508712376	0.01900798816929561	-0.395273865617869	0.0761841767957052	-0.002526735502295157	0.2100863012236067	-12.71977381768508	-18.5375581333053	-1.369841307438465	-2.717879118588504	0.8608663524864697	-691.5880521051586	64.31159857409602	0.5964268342857059	0.5878594039146305	-0.06666906427163796	-2.265728934630538	0.1555378385524335	-0.4833655307845742	1.893067004337605	-2.516957076006411	-2.516957076006416	0.4691650910679367	-0.02442137930384002	-0.9692724521967346	0.05754780682419403	-1.043771484373715e-07	-6.488682433553872e-08	1.10883254270475e-06	-4.363551975757573e-07	-9.384873031595696e-08	-1.355460420462453e-07	6.940717247608924e-07
0.5700000000000001	-0.2168697846570393	0.001782003701334189	0.7744638818921256	1.095490175438274	-0.2474866480415452	-0.0424326847057564	-0.3742071522911872	1.015283237550483	1.015283237550479	0.05419406161264219	0.1745157782134696	0.3148192956966728	0.04570401499020433	-0.4426919182762197	-0.1223918987343399	-0.5534251133036737	1.976912397248628	-0.008605178651321287	0.4179433622030165	-0.4647738146829853	2.000316666903978	2.000316666903976	-0.143879882880366	-0.0003854947294829705	0.5555171790652392	0.1367592742783871	-0.1795597728774442	-0.01611303151163287	0.01940171066706469	-0.3996711563306896	0.07312069349841109	-0.001907617302059449	0.2158870776667175	-11.4007877623248	-19.80863127075272	-1.453120740854122	-2.556560109566902	1.487324662535993	-697.1389166677017	64.4771635611849	0.6355348760011509	0.5859094071384179	0.01283781856815407	-2.425106905356676	0.1363777850171974	-0.505853345271836	1.899981576418748	-2.673928776241918	-2.673928776241505	0.4911998760724998	0.005262200183861342	-1.016954147850796	0.01876918448292662	-7.000966305787837e-08	-2.976064158492193e-09	1.335393821231044e-06	1.019010716203786e-09	-1.630978682549808e-07	-9.427351770067847e-08	8.731777920945936e-07
0.58	-0.2212644637622259	0.0005873314682307627	0.7689315951165943	1.115135643832496	-0.2475656716390651	-0.03827834362655458	-0.3787595575656667	1.035150160901177	1.035150160901173	0.05277969317594849	0.1745114637689225	0.3203230429859369	0.04707269941750129	-0.4361880900342852	-0.1165464373056212	-0.5528996647123188	1.951928521004171	-0.007205164812054476	0.4129172746586349	-0.4456847883932119	1.972809695376827	1.972809695376828	-0.1389831582841567	-0.0004884632757923177	0.5451639395731626	0.1369518558699108	-0.1861822147503673	-0.01482631215203143	0.01979543316481666	-0.4040684470435102	0.07005721020111574	-0.001288499101828424	0.2216878541098301	-10.10058404648962	-21.08366297508998	-1.534987460546039	-2.397871459054235	2.1023917253968	-702.7576147313257	64.68846706087464	0.6633483433195301	0.5830275722539865	0.09223333936205133	-2.569105037025339	0.1489064331069693	-0.4935687643735562	1.920009188143156	-2.8267785397304	-2.826778539730394	0.4831271195878135	-0.03801624726919688	-1.051505331976479	0.02769844815784546	-1.827886937277e-08	1.032942089571602e-07	1.906404029279436e-06	7.696241175639606e-07	-3.018535842728564e-07	-3.777010593764558e-08	1.311321868493004e-06
0.59	-0.2255925756973241	-0.0005490310771514178	0.7634085590243276	1.13452382336966	-0.2476307018009964	-0.03417725247379866	-0.3831205480566424	1.05473437590709	1.054734375907088	0.05141210779681906	0.174507124839575	0.325721364417867	0.04844286111210021	-0.4293910666496685	-0.1107309366312018	-0.5515733183512058	1.925463049474886	-0.005806370256697494	0.4072756582246488	-0.4265055438070758	1.943782650317268	1.943782650317269	-0.1345427028311275	-0.0003903861215340907	0.5344447801071154	0.1370573240173704	-0.1923203072166767	-0.01420451253947407	0.02011420469549242	-0.408956817676949	0.06769280089024952	-0.0004782608780608232	0.2270852478957797	-8.820033822710361	-22.1219646700113	-1.460418475506188	-2.300655845954193	2.540844924923251	-708.3156210957005	65.26612604814817	0.6943774335027568	0.5800049569950151	0.1729696595354196	-2.721901349982494	0.134839316480455	-0.6033022407606269	1.918046993093296	-2.978268217974526	-2.978268217974549	0.4234809278844061	0.03236857216140691	-1.090519509783325	-0.001006509238241217	8.779072501485112e-09	1.583972420982327e-07	2.236388044929039e-06	1.18107408721494e-06	-3.784224247979182e-07	-8.114066256906549e-09	1.579667224837993e-06
